solid OpenSCAD_Model
  facet normal -0 0 -1
    outer loop
      vertex -26.9875 0 -0.0005
      vertex -26.3978 5.61102 -0.0005
      vertex -26.3978 -5.61102 -0.0005
    endloop
  endfacet
  facet normal 0 -0 -1
    outer loop
      vertex -26.3978 -5.61102 -0.0005
      vertex -26.3978 5.61102 -0.0005
      vertex -24.6543 10.9768 -0.0005
    endloop
  endfacet
  facet normal 0 0 -1
    outer loop
      vertex -26.3978 -5.61102 -0.0005
      vertex -24.6543 10.9768 -0.0005
      vertex -21.8333 15.8629 -0.0005
    endloop
  endfacet
  facet normal 0 0 -1
    outer loop
      vertex -26.3978 -5.61102 -0.0005
      vertex -21.8333 15.8629 -0.0005
      vertex -18.0582 20.0556 -0.0005
    endloop
  endfacet
  facet normal 0 0 -1
    outer loop
      vertex -26.3978 -5.61102 -0.0005
      vertex -18.0582 20.0556 -0.0005
      vertex -13.4937 23.3719 -0.0005
    endloop
  endfacet
  facet normal 0 0 -1
    outer loop
      vertex -26.3978 -5.61102 -0.0005
      vertex -13.4937 23.3719 -0.0005
      vertex -8.3396 25.6666 -0.0005
    endloop
  endfacet
  facet normal 0 0 -1
    outer loop
      vertex -26.3978 -5.61102 -0.0005
      vertex -8.3396 25.6666 -0.0005
      vertex -2.82096 26.8397 -0.0005
    endloop
  endfacet
  facet normal 0 0 -1
    outer loop
      vertex -26.3978 -5.61102 -0.0005
      vertex -2.82096 26.8397 -0.0005
      vertex 2.82096 26.8397 -0.0005
    endloop
  endfacet
  facet normal 0 0 -1
    outer loop
      vertex -3.37962 15.7792 -0.0005
      vertex 2.82096 26.8397 -0.0005
      vertex 8.3396 25.6666 -0.0005
    endloop
  endfacet
  facet normal 0 0 -1
    outer loop
      vertex 2.45282 16.1875 -0.0005
      vertex 8.3396 25.6666 -0.0005
      vertex 13.4937 23.3719 -0.0005
    endloop
  endfacet
  facet normal 0 0 -1
    outer loop
      vertex 5.78619 13.8339 -0.0005
      vertex 13.4937 23.3719 -0.0005
      vertex 18.0582 20.0556 -0.0005
    endloop
  endfacet
  facet normal 0 0 -1
    outer loop
      vertex 6.95568 12.043 -0.0005
      vertex 18.0582 20.0556 -0.0005
      vertex 21.8333 15.8629 -0.0005
    endloop
  endfacet
  facet normal 0 0 -1
    outer loop
      vertex 7.9375 7.78846 -0.0005
      vertex 21.8333 15.8629 -0.0005
      vertex 24.6543 10.9768 -0.0005
    endloop
  endfacet
  facet normal 0 0 -1
    outer loop
      vertex 6.95568 3.53396 -0.0005
      vertex 24.6543 10.9768 -0.0005
      vertex 26.3978 5.61102 -0.0005
    endloop
  endfacet
  facet normal 0 0 -1
    outer loop
      vertex 2.45282 -0.610587 -0.0005
      vertex 26.3978 5.61102 -0.0005
      vertex 26.9875 0 -0.0005
    endloop
  endfacet
  facet normal -0 0 -1
    outer loop
      vertex -26.3978 -5.61102 -0.0005
      vertex 26.9875 0 -0.0005
      vertex 26.3978 -5.61102 -0.0005
    endloop
  endfacet
  facet normal 0 0 -1
    outer loop
      vertex -26.3978 -5.61102 -0.0005
      vertex 26.3978 -5.61102 -0.0005
      vertex 24.6543 -10.9768 -0.0005
    endloop
  endfacet
  facet normal 0 0 -1
    outer loop
      vertex -26.3978 -5.61102 -0.0005
      vertex 24.6543 -10.9768 -0.0005
      vertex 21.8333 -15.8629 -0.0005
    endloop
  endfacet
  facet normal 0 0 -1
    outer loop
      vertex -26.3978 -5.61102 -0.0005
      vertex 21.8333 -15.8629 -0.0005
      vertex 18.0582 -20.0556 -0.0005
    endloop
  endfacet
  facet normal 0 0 -1
    outer loop
      vertex -26.3978 -5.61102 -0.0005
      vertex 18.0582 -20.0556 -0.0005
      vertex 13.4937 -23.3719 -0.0005
    endloop
  endfacet
  facet normal 0 0 -1
    outer loop
      vertex -26.3978 -5.61102 -0.0005
      vertex 13.4937 -23.3719 -0.0005
      vertex 8.3396 -25.6666 -0.0005
    endloop
  endfacet
  facet normal 0 0 -1
    outer loop
      vertex -26.3978 -5.61102 -0.0005
      vertex 8.3396 -25.6666 -0.0005
      vertex 2.82096 -26.8397 -0.0005
    endloop
  endfacet
  facet normal 0 0 -1
    outer loop
      vertex -26.3978 -5.61102 -0.0005
      vertex 2.82096 -26.8397 -0.0005
      vertex -2.82096 -26.8397 -0.0005
    endloop
  endfacet
  facet normal 0 0 -1
    outer loop
      vertex -26.3978 -5.61102 -0.0005
      vertex -2.82096 -26.8397 -0.0005
      vertex -8.3396 -25.6666 -0.0005
    endloop
  endfacet
  facet normal 0 0 -1
    outer loop
      vertex -26.3978 -5.61102 -0.0005
      vertex -8.3396 -25.6666 -0.0005
      vertex -13.4937 -23.3719 -0.0005
    endloop
  endfacet
  facet normal 0 0 -1
    outer loop
      vertex -26.3978 -5.61102 -0.0005
      vertex -13.4937 -23.3719 -0.0005
      vertex -18.0582 -20.0556 -0.0005
    endloop
  endfacet
  facet normal 0 0 -1
    outer loop
      vertex -26.3978 -5.61102 -0.0005
      vertex -18.0582 -20.0556 -0.0005
      vertex -21.8333 -15.8629 -0.0005
    endloop
  endfacet
  facet normal 0 0 -1
    outer loop
      vertex -26.3978 -5.61102 -0.0005
      vertex -21.8333 -15.8629 -0.0005
      vertex -24.6543 -10.9768 -0.0005
    endloop
  endfacet
  facet normal 0 0 -1
    outer loop
      vertex -3.37962 15.7792 -0.0005
      vertex 8.3396 25.6666 -0.0005
      vertex -1.48734 16.4633 -0.0005
    endloop
  endfacet
  facet normal 0 0 -1
    outer loop
      vertex -7.3801 4.53745 -0.0005
      vertex -26.3978 -5.61102 -0.0005
      vertex -7.87491 6.6816 -0.0005
    endloop
  endfacet
  facet normal -0 0 -1
    outer loop
      vertex 6.95568 12.043 -0.0005
      vertex 21.8333 15.8629 -0.0005
      vertex 7.68813 9.98471 -0.0005
    endloop
  endfacet
  facet normal 0 0 -1
    outer loop
      vertex -6.42157 2.59756 -0.0005
      vertex -26.3978 -5.61102 -0.0005
      vertex -7.3801 4.53745 -0.0005
    endloop
  endfacet
  facet normal 0 0 -1
    outer loop
      vertex -5.05955 0.983841 -0.0005
      vertex -26.3978 -5.61102 -0.0005
      vertex -6.42157 2.59756 -0.0005
    endloop
  endfacet
  facet normal 0 0 -1
    outer loop
      vertex -1.48734 -0.886394 -0.0005
      vertex -26.3978 -5.61102 -0.0005
      vertex -3.37962 -0.202322 -0.0005
    endloop
  endfacet
  facet normal 0 0 -1
    outer loop
      vertex -26.3978 -5.61102 -0.0005
      vertex -5.05955 0.983841 -0.0005
      vertex -3.37962 -0.202322 -0.0005
    endloop
  endfacet
  facet normal -0 0 -1
    outer loop
      vertex 2.45282 -0.610587 -0.0005
      vertex 26.9875 0 -0.0005
      vertex 0.4984 -1.02539 -0.0005
    endloop
  endfacet
  facet normal 0 0 -1
    outer loop
      vertex -26.3978 -5.61102 -0.0005
      vertex -1.48734 -0.886394 -0.0005
      vertex 0.4984 -1.02539 -0.0005
    endloop
  endfacet
  facet normal 0 0 -1
    outer loop
      vertex -26.3978 -5.61102 -0.0005
      vertex 0.4984 -1.02539 -0.0005
      vertex 26.9875 0 -0.0005
    endloop
  endfacet
  facet normal -0 0 -1
    outer loop
      vertex 4.25312 0.331963 -0.0005
      vertex 26.3978 5.61102 -0.0005
      vertex 2.45282 -0.610587 -0.0005
    endloop
  endfacet
  facet normal -0 0 -1
    outer loop
      vertex 5.78619 1.74303 -0.0005
      vertex 26.3978 5.61102 -0.0005
      vertex 4.25312 0.331963 -0.0005
    endloop
  endfacet
  facet normal -0 0 -1
    outer loop
      vertex 6.95568 3.53396 -0.0005
      vertex 26.3978 5.61102 -0.0005
      vertex 5.78619 1.74303 -0.0005
    endloop
  endfacet
  facet normal -0 0 -1
    outer loop
      vertex 7.68813 5.59221 -0.0005
      vertex 24.6543 10.9768 -0.0005
      vertex 6.95568 3.53396 -0.0005
    endloop
  endfacet
  facet normal -0 0 -1
    outer loop
      vertex 7.68813 9.98471 -0.0005
      vertex 21.8333 15.8629 -0.0005
      vertex 7.9375 7.78846 -0.0005
    endloop
  endfacet
  facet normal -0 0 -1
    outer loop
      vertex 7.9375 7.78846 -0.0005
      vertex 24.6543 10.9768 -0.0005
      vertex 7.68813 5.59221 -0.0005
    endloop
  endfacet
  facet normal -0 0 -1
    outer loop
      vertex 5.78619 13.8339 -0.0005
      vertex 18.0582 20.0556 -0.0005
      vertex 6.95568 12.043 -0.0005
    endloop
  endfacet
  facet normal -0 0 -1
    outer loop
      vertex 4.25312 15.245 -0.0005
      vertex 13.4937 23.3719 -0.0005
      vertex 5.78619 13.8339 -0.0005
    endloop
  endfacet
  facet normal -0 0 -1
    outer loop
      vertex 2.45282 16.1875 -0.0005
      vertex 13.4937 23.3719 -0.0005
      vertex 4.25312 15.245 -0.0005
    endloop
  endfacet
  facet normal -0 0 -1
    outer loop
      vertex 0.4984 16.6023 -0.0005
      vertex 8.3396 25.6666 -0.0005
      vertex 2.45282 16.1875 -0.0005
    endloop
  endfacet
  facet normal 0 0 -1
    outer loop
      vertex -1.48734 16.4633 -0.0005
      vertex 8.3396 25.6666 -0.0005
      vertex 0.4984 16.6023 -0.0005
    endloop
  endfacet
  facet normal 0 0 -1
    outer loop
      vertex -5.05955 14.5931 -0.0005
      vertex 2.82096 26.8397 -0.0005
      vertex -3.37962 15.7792 -0.0005
    endloop
  endfacet
  facet normal 0 -0 -1
    outer loop
      vertex -7.3801 11.0395 -0.0005
      vertex -26.3978 -5.61102 -0.0005
      vertex -6.42157 12.9794 -0.0005
    endloop
  endfacet
  facet normal 0 0 -1
    outer loop
      vertex -26.3978 -5.61102 -0.0005
      vertex 2.82096 26.8397 -0.0005
      vertex -5.05955 14.5931 -0.0005
    endloop
  endfacet
  facet normal 0 0 -1
    outer loop
      vertex -26.3978 -5.61102 -0.0005
      vertex -5.05955 14.5931 -0.0005
      vertex -6.42157 12.9794 -0.0005
    endloop
  endfacet
  facet normal 0 0 -1
    outer loop
      vertex -26.3978 -5.61102 -0.0005
      vertex -7.3801 11.0395 -0.0005
      vertex -7.87491 8.89531 -0.0005
    endloop
  endfacet
  facet normal 0 0 -1
    outer loop
      vertex -7.87491 6.6816 -0.0005
      vertex -26.3978 -5.61102 -0.0005
      vertex -7.87491 8.89531 -0.0005
    endloop
  endfacet
  facet normal -0.994522 0.104529 0
    outer loop
      vertex -26.9875 0 -0.0005
      vertex -26.9875 0 6.3505
      vertex -26.3978 5.61102 -0.0005
    endloop
  endfacet
  facet normal -0.994522 0.104529 0
    outer loop
      vertex -26.3978 5.61102 -0.0005
      vertex -26.9875 0 6.3505
      vertex -26.3978 5.61102 6.3505
    endloop
  endfacet
  facet normal -0.994522 -0.104529 -0
    outer loop
      vertex -26.9875 0 -0.0005
      vertex -26.3978 -5.61102 -0.0005
      vertex -26.9875 0 6.3505
    endloop
  endfacet
  facet normal -0.994522 -0.104529 0
    outer loop
      vertex -26.9875 0 6.3505
      vertex -26.3978 -5.61102 -0.0005
      vertex -26.3978 -5.61102 6.3505
    endloop
  endfacet
  facet normal -0.951057 -0.309017 -0
    outer loop
      vertex -26.3978 -5.61102 -0.0005
      vertex -24.6543 -10.9768 -0.0005
      vertex -26.3978 -5.61102 6.3505
    endloop
  endfacet
  facet normal -0.951057 -0.309017 0
    outer loop
      vertex -26.3978 -5.61102 6.3505
      vertex -24.6543 -10.9768 -0.0005
      vertex -24.6543 -10.9768 6.3505
    endloop
  endfacet
  facet normal -0.866025 -0.5 -0
    outer loop
      vertex -24.6543 -10.9768 -0.0005
      vertex -21.8333 -15.8629 -0.0005
      vertex -24.6543 -10.9768 6.3505
    endloop
  endfacet
  facet normal -0.866025 -0.5 0
    outer loop
      vertex -24.6543 -10.9768 6.3505
      vertex -21.8333 -15.8629 -0.0005
      vertex -21.8333 -15.8629 6.3505
    endloop
  endfacet
  facet normal -0.743145 -0.669131 -0
    outer loop
      vertex -21.8333 -15.8629 -0.0005
      vertex -18.0582 -20.0556 -0.0005
      vertex -21.8333 -15.8629 6.3505
    endloop
  endfacet
  facet normal -0.743145 -0.669131 0
    outer loop
      vertex -21.8333 -15.8629 6.3505
      vertex -18.0582 -20.0556 -0.0005
      vertex -18.0582 -20.0556 6.3505
    endloop
  endfacet
  facet normal -0.587785 -0.809017 0
    outer loop
      vertex -18.0582 -20.0556 6.3505
      vertex -18.0582 -20.0556 -0.0005
      vertex -13.4937 -23.3719 -0.0005
    endloop
  endfacet
  facet normal -0.587785 -0.809017 0
    outer loop
      vertex -13.4937 -23.3719 6.3505
      vertex -18.0582 -20.0556 6.3505
      vertex -13.4937 -23.3719 -0.0005
    endloop
  endfacet
  facet normal -0.406737 -0.913545 0
    outer loop
      vertex -13.4937 -23.3719 6.3505
      vertex -13.4937 -23.3719 -0.0005
      vertex -8.3396 -25.6666 -0.0005
    endloop
  endfacet
  facet normal -0.406737 -0.913545 0
    outer loop
      vertex -8.3396 -25.6666 6.3505
      vertex -13.4937 -23.3719 6.3505
      vertex -8.3396 -25.6666 -0.0005
    endloop
  endfacet
  facet normal -0.207912 -0.978148 0
    outer loop
      vertex -8.3396 -25.6666 6.3505
      vertex -8.3396 -25.6666 -0.0005
      vertex -2.82096 -26.8397 -0.0005
    endloop
  endfacet
  facet normal -0.207912 -0.978148 0
    outer loop
      vertex -2.82096 -26.8397 6.3505
      vertex -8.3396 -25.6666 6.3505
      vertex -2.82096 -26.8397 -0.0005
    endloop
  endfacet
  facet normal 0 -1 0
    outer loop
      vertex -2.82096 -26.8397 6.3505
      vertex -2.82096 -26.8397 -0.0005
      vertex 2.82096 -26.8397 -0.0005
    endloop
  endfacet
  facet normal 0 -1 0
    outer loop
      vertex 2.82096 -26.8397 6.3505
      vertex -2.82096 -26.8397 6.3505
      vertex 2.82096 -26.8397 -0.0005
    endloop
  endfacet
  facet normal 0.207912 -0.978148 0
    outer loop
      vertex 2.82096 -26.8397 6.3505
      vertex 2.82096 -26.8397 -0.0005
      vertex 8.3396 -25.6666 -0.0005
    endloop
  endfacet
  facet normal 0.207912 -0.978148 0
    outer loop
      vertex 8.3396 -25.6666 6.3505
      vertex 2.82096 -26.8397 6.3505
      vertex 8.3396 -25.6666 -0.0005
    endloop
  endfacet
  facet normal 0.406737 -0.913545 0
    outer loop
      vertex 8.3396 -25.6666 6.3505
      vertex 8.3396 -25.6666 -0.0005
      vertex 13.4937 -23.3719 -0.0005
    endloop
  endfacet
  facet normal 0.406737 -0.913545 0
    outer loop
      vertex 13.4937 -23.3719 6.3505
      vertex 8.3396 -25.6666 6.3505
      vertex 13.4937 -23.3719 -0.0005
    endloop
  endfacet
  facet normal 0.587785 -0.809017 0
    outer loop
      vertex 13.4937 -23.3719 6.3505
      vertex 13.4937 -23.3719 -0.0005
      vertex 18.0582 -20.0556 -0.0005
    endloop
  endfacet
  facet normal 0.587785 -0.809017 0
    outer loop
      vertex 18.0582 -20.0556 6.3505
      vertex 13.4937 -23.3719 6.3505
      vertex 18.0582 -20.0556 -0.0005
    endloop
  endfacet
  facet normal 0.743145 -0.669131 0
    outer loop
      vertex 18.0582 -20.0556 6.3505
      vertex 18.0582 -20.0556 -0.0005
      vertex 21.8333 -15.8629 -0.0005
    endloop
  endfacet
  facet normal 0.743145 -0.669131 0
    outer loop
      vertex 21.8333 -15.8629 6.3505
      vertex 18.0582 -20.0556 6.3505
      vertex 21.8333 -15.8629 -0.0005
    endloop
  endfacet
  facet normal 0.866025 -0.5 0
    outer loop
      vertex 21.8333 -15.8629 6.3505
      vertex 21.8333 -15.8629 -0.0005
      vertex 24.6543 -10.9768 -0.0005
    endloop
  endfacet
  facet normal 0.866025 -0.5 0
    outer loop
      vertex 24.6543 -10.9768 6.3505
      vertex 21.8333 -15.8629 6.3505
      vertex 24.6543 -10.9768 -0.0005
    endloop
  endfacet
  facet normal 0.951057 -0.309017 0
    outer loop
      vertex 24.6543 -10.9768 6.3505
      vertex 24.6543 -10.9768 -0.0005
      vertex 26.3978 -5.61102 -0.0005
    endloop
  endfacet
  facet normal 0.951057 -0.309017 0
    outer loop
      vertex 26.3978 -5.61102 6.3505
      vertex 24.6543 -10.9768 6.3505
      vertex 26.3978 -5.61102 -0.0005
    endloop
  endfacet
  facet normal 0.994522 -0.104529 0
    outer loop
      vertex 26.3978 -5.61102 6.3505
      vertex 26.3978 -5.61102 -0.0005
      vertex 26.9875 0 -0.0005
    endloop
  endfacet
  facet normal 0.994522 -0.104529 0
    outer loop
      vertex 26.9875 0 6.3505
      vertex 26.3978 -5.61102 6.3505
      vertex 26.9875 0 -0.0005
    endloop
  endfacet
  facet normal 0.994522 0.104529 0
    outer loop
      vertex 26.9875 0 -0.0005
      vertex 26.3978 5.61102 -0.0005
      vertex 26.3978 5.61102 6.3505
    endloop
  endfacet
  facet normal 0.994522 0.104529 -0
    outer loop
      vertex 26.9875 0 6.3505
      vertex 26.9875 0 -0.0005
      vertex 26.3978 5.61102 6.3505
    endloop
  endfacet
  facet normal 0.951057 0.309017 0
    outer loop
      vertex 26.3978 5.61102 -0.0005
      vertex 24.6543 10.9768 -0.0005
      vertex 24.6543 10.9768 6.3505
    endloop
  endfacet
  facet normal 0.951057 0.309017 -0
    outer loop
      vertex 26.3978 5.61102 6.3505
      vertex 26.3978 5.61102 -0.0005
      vertex 24.6543 10.9768 6.3505
    endloop
  endfacet
  facet normal 0.866025 0.5 0
    outer loop
      vertex 24.6543 10.9768 -0.0005
      vertex 21.8333 15.8629 -0.0005
      vertex 21.8333 15.8629 6.3505
    endloop
  endfacet
  facet normal 0.866025 0.5 -0
    outer loop
      vertex 24.6543 10.9768 6.3505
      vertex 24.6543 10.9768 -0.0005
      vertex 21.8333 15.8629 6.3505
    endloop
  endfacet
  facet normal 0.743145 0.669131 0
    outer loop
      vertex 21.8333 15.8629 -0.0005
      vertex 18.0582 20.0556 -0.0005
      vertex 18.0582 20.0556 6.3505
    endloop
  endfacet
  facet normal 0.743145 0.669131 -0
    outer loop
      vertex 21.8333 15.8629 6.3505
      vertex 21.8333 15.8629 -0.0005
      vertex 18.0582 20.0556 6.3505
    endloop
  endfacet
  facet normal 0.587785 0.809017 0
    outer loop
      vertex 13.4937 23.3719 -0.0005
      vertex 13.4937 23.3719 6.3505
      vertex 18.0582 20.0556 -0.0005
    endloop
  endfacet
  facet normal 0.587785 0.809017 0
    outer loop
      vertex 18.0582 20.0556 -0.0005
      vertex 13.4937 23.3719 6.3505
      vertex 18.0582 20.0556 6.3505
    endloop
  endfacet
  facet normal 0.406737 0.913545 0
    outer loop
      vertex 8.3396 25.6666 -0.0005
      vertex 8.3396 25.6666 6.3505
      vertex 13.4937 23.3719 -0.0005
    endloop
  endfacet
  facet normal 0.406737 0.913545 0
    outer loop
      vertex 13.4937 23.3719 -0.0005
      vertex 8.3396 25.6666 6.3505
      vertex 13.4937 23.3719 6.3505
    endloop
  endfacet
  facet normal 0.207912 0.978148 0
    outer loop
      vertex 2.82096 26.8397 -0.0005
      vertex 2.82096 26.8397 6.3505
      vertex 8.3396 25.6666 -0.0005
    endloop
  endfacet
  facet normal 0.207912 0.978148 0
    outer loop
      vertex 8.3396 25.6666 -0.0005
      vertex 2.82096 26.8397 6.3505
      vertex 8.3396 25.6666 6.3505
    endloop
  endfacet
  facet normal 0 1 0
    outer loop
      vertex -2.82096 26.8397 -0.0005
      vertex -2.82096 26.8397 6.3505
      vertex 2.82096 26.8397 -0.0005
    endloop
  endfacet
  facet normal 0 1 0
    outer loop
      vertex 2.82096 26.8397 -0.0005
      vertex -2.82096 26.8397 6.3505
      vertex 2.82096 26.8397 6.3505
    endloop
  endfacet
  facet normal -0.207912 0.978148 0
    outer loop
      vertex -8.3396 25.6666 -0.0005
      vertex -8.3396 25.6666 6.3505
      vertex -2.82096 26.8397 -0.0005
    endloop
  endfacet
  facet normal -0.207912 0.978148 0
    outer loop
      vertex -2.82096 26.8397 -0.0005
      vertex -8.3396 25.6666 6.3505
      vertex -2.82096 26.8397 6.3505
    endloop
  endfacet
  facet normal -0.406737 0.913545 0
    outer loop
      vertex -13.4937 23.3719 -0.0005
      vertex -13.4937 23.3719 6.3505
      vertex -8.3396 25.6666 -0.0005
    endloop
  endfacet
  facet normal -0.406737 0.913545 0
    outer loop
      vertex -8.3396 25.6666 -0.0005
      vertex -13.4937 23.3719 6.3505
      vertex -8.3396 25.6666 6.3505
    endloop
  endfacet
  facet normal -0.587785 0.809017 0
    outer loop
      vertex -18.0582 20.0556 -0.0005
      vertex -18.0582 20.0556 6.3505
      vertex -13.4937 23.3719 -0.0005
    endloop
  endfacet
  facet normal -0.587785 0.809017 0
    outer loop
      vertex -13.4937 23.3719 -0.0005
      vertex -18.0582 20.0556 6.3505
      vertex -13.4937 23.3719 6.3505
    endloop
  endfacet
  facet normal -0.743145 0.669131 0
    outer loop
      vertex -21.8333 15.8629 -0.0005
      vertex -21.8333 15.8629 6.3505
      vertex -18.0582 20.0556 -0.0005
    endloop
  endfacet
  facet normal -0.743145 0.669131 0
    outer loop
      vertex -18.0582 20.0556 -0.0005
      vertex -21.8333 15.8629 6.3505
      vertex -18.0582 20.0556 6.3505
    endloop
  endfacet
  facet normal -0.866025 0.5 0
    outer loop
      vertex -24.6543 10.9768 -0.0005
      vertex -24.6543 10.9768 6.3505
      vertex -21.8333 15.8629 -0.0005
    endloop
  endfacet
  facet normal -0.866025 0.5 0
    outer loop
      vertex -21.8333 15.8629 -0.0005
      vertex -24.6543 10.9768 6.3505
      vertex -21.8333 15.8629 6.3505
    endloop
  endfacet
  facet normal -0.951057 0.309017 0
    outer loop
      vertex -26.3978 5.61102 -0.0005
      vertex -26.3978 5.61102 6.3505
      vertex -24.6543 10.9768 -0.0005
    endloop
  endfacet
  facet normal -0.951057 0.309017 0
    outer loop
      vertex -24.6543 10.9768 -0.0005
      vertex -26.3978 5.61102 6.3505
      vertex -24.6543 10.9768 6.3505
    endloop
  endfacet
  facet normal 0.968583 -0.223521 -0.109018
    outer loop
      vertex -7.87491 8.89531 -0.0005
      vertex -7.3801 11.0395 -0.0005
      vertex -7.3801 -4.44629 31.75
    endloop
  endfacet
  facet normal 0.968583 -0.223521 -0.109018
    outer loop
      vertex -7.87491 -6.59044 31.75
      vertex -7.87491 8.89531 -0.0005
      vertex -7.3801 -4.44629 31.75
    endloop
  endfacet
  facet normal 1 0 0
    outer loop
      vertex -7.87491 6.6816 -0.0005
      vertex -7.87491 8.89531 -0.0005
      vertex -7.87491 -6.59044 31.75
    endloop
  endfacet
  facet normal 1 0 0
    outer loop
      vertex -7.87491 -8.80415 31.75
      vertex -7.87491 6.6816 -0.0005
      vertex -7.87491 -6.59044 31.75
    endloop
  endfacet
  facet normal 0.876306 -0.432998 -0.211187
    outer loop
      vertex -7.3801 11.0395 -0.0005
      vertex -6.42157 12.9794 -0.0005
      vertex -6.42157 -2.5064 31.75
    endloop
  endfacet
  facet normal 0.876306 -0.432998 -0.211187
    outer loop
      vertex -7.3801 -4.44629 31.75
      vertex -7.3801 11.0395 -0.0005
      vertex -6.42157 -2.5064 31.75
    endloop
  endfacet
  facet normal 0.728969 -0.615267 -0.300086
    outer loop
      vertex -6.42157 12.9794 -0.0005
      vertex -5.05955 14.5931 -0.0005
      vertex -5.05955 -0.892679 31.75
    endloop
  endfacet
  facet normal 0.728969 -0.615267 -0.300086
    outer loop
      vertex -6.42157 -2.5064 31.75
      vertex -6.42157 12.9794 -0.0005
      vertex -5.05955 -0.892679 31.75
    endloop
  endfacet
  facet normal 0.535827 -0.758877 -0.370129
    outer loop
      vertex -5.05955 14.5931 -0.0005
      vertex -3.37962 15.7792 -0.0005
      vertex -3.37962 0.293483 31.75
    endloop
  endfacet
  facet normal 0.535827 -0.758877 -0.370129
    outer loop
      vertex -5.05955 -0.892679 31.75
      vertex -5.05955 14.5931 -0.0005
      vertex -3.37962 0.293483 31.75
    endloop
  endfacet
  facet normal 0.309017 -0.854804 -0.416916
    outer loop
      vertex -3.37962 15.7792 -0.0005
      vertex -1.48734 16.4633 -0.0005
      vertex -1.48734 0.977556 31.75
    endloop
  endfacet
  facet normal 0.309017 -0.854804 -0.416916
    outer loop
      vertex -3.37962 0.293483 31.75
      vertex -3.37962 15.7792 -0.0005
      vertex -1.48734 0.977556 31.75
    endloop
  endfacet
  facet normal 0.0627905 -0.89702 -0.437506
    outer loop
      vertex -1.48734 16.4633 -0.0005
      vertex 0.4984 16.6023 -0.0005
      vertex 0.4984 1.11656 31.75
    endloop
  endfacet
  facet normal 0.0627905 -0.89702 -0.437506
    outer loop
      vertex -1.48734 0.977556 31.75
      vertex -1.48734 16.4633 -0.0005
      vertex 0.4984 1.11656 31.75
    endloop
  endfacet
  facet normal -0.187381 -0.882874 -0.430606
    outer loop
      vertex 0.4984 16.6023 -0.0005
      vertex 2.45282 16.1875 -0.0005
      vertex 2.45282 0.701748 31.75
    endloop
  endfacet
  facet normal -0.187381 -0.882874 -0.430606
    outer loop
      vertex 0.4984 1.11656 31.75
      vertex 0.4984 16.6023 -0.0005
      vertex 2.45282 0.701748 31.75
    endloop
  endfacet
  facet normal -0.425779 -0.813253 -0.39665
    outer loop
      vertex 2.45282 16.1875 -0.0005
      vertex 4.25312 15.245 -0.0005
      vertex 4.25312 -0.240801 31.75
    endloop
  endfacet
  facet normal -0.425779 -0.813253 -0.39665
    outer loop
      vertex 2.45282 0.701748 31.75
      vertex 2.45282 16.1875 -0.0005
      vertex 4.25312 -0.240801 31.75
    endloop
  endfacet
  facet normal -0.637424 -0.692533 -0.337771
    outer loop
      vertex 4.25312 15.245 -0.0005
      vertex 5.78619 13.8339 -0.0005
      vertex 5.78619 -1.65187 31.75
    endloop
  endfacet
  facet normal -0.637424 -0.692533 -0.337771
    outer loop
      vertex 4.25312 -0.240801 31.75
      vertex 4.25312 15.245 -0.0005
      vertex 5.78619 -1.65187 31.75
    endloop
  endfacet
  facet normal -0.809017 -0.528298 -0.257668
    outer loop
      vertex 6.95568 12.043 -0.0005
      vertex 6.95568 -3.4428 31.75
      vertex 5.78619 13.8339 -0.0005
    endloop
  endfacet
  facet normal -0.809017 -0.528298 -0.257668
    outer loop
      vertex 5.78619 13.8339 -0.0005
      vertex 6.95568 -3.4428 31.75
      vertex 5.78619 -1.65187 31.75
    endloop
  endfacet
  facet normal -0.929776 -0.330868 -0.161375
    outer loop
      vertex 7.68813 9.98471 -0.0005
      vertex 7.68813 -5.50105 31.75
      vertex 6.95568 12.043 -0.0005
    endloop
  endfacet
  facet normal -0.929776 -0.330868 -0.161375
    outer loop
      vertex 6.95568 12.043 -0.0005
      vertex 7.68813 -5.50105 31.75
      vertex 6.95568 -3.4428 31.75
    endloop
  endfacet
  facet normal -0.992115 -0.112649 -0.0549424
    outer loop
      vertex 7.9375 7.78846 -0.0005
      vertex 7.9375 -7.6973 31.75
      vertex 7.68813 9.98471 -0.0005
    endloop
  endfacet
  facet normal -0.992115 -0.112649 -0.0549424
    outer loop
      vertex 7.68813 9.98471 -0.0005
      vertex 7.9375 -7.6973 31.75
      vertex 7.68813 -5.50105 31.75
    endloop
  endfacet
  facet normal -0.992115 0.112649 0.0549424
    outer loop
      vertex 7.9375 7.78846 -0.0005
      vertex 7.68813 5.59221 -0.0005
      vertex 7.9375 -7.6973 31.75
    endloop
  endfacet
  facet normal -0.992115 0.112649 0.0549424
    outer loop
      vertex 7.9375 -7.6973 31.75
      vertex 7.68813 5.59221 -0.0005
      vertex 7.68813 -9.89355 31.75
    endloop
  endfacet
  facet normal -0.929776 0.330868 0.161375
    outer loop
      vertex 7.68813 5.59221 -0.0005
      vertex 6.95568 3.53396 -0.0005
      vertex 7.68813 -9.89355 31.75
    endloop
  endfacet
  facet normal -0.929776 0.330868 0.161375
    outer loop
      vertex 7.68813 -9.89355 31.75
      vertex 6.95568 3.53396 -0.0005
      vertex 6.95568 -11.9518 31.75
    endloop
  endfacet
  facet normal -0.809017 0.528298 0.257668
    outer loop
      vertex 6.95568 3.53396 -0.0005
      vertex 5.78619 1.74303 -0.0005
      vertex 6.95568 -11.9518 31.75
    endloop
  endfacet
  facet normal -0.809017 0.528298 0.257668
    outer loop
      vertex 6.95568 -11.9518 31.75
      vertex 5.78619 1.74303 -0.0005
      vertex 5.78619 -13.7427 31.75
    endloop
  endfacet
  facet normal -0.637424 0.692533 0.337771
    outer loop
      vertex 5.78619 1.74303 -0.0005
      vertex 4.25312 0.331963 -0.0005
      vertex 5.78619 -13.7427 31.75
    endloop
  endfacet
  facet normal -0.637424 0.692533 0.337771
    outer loop
      vertex 5.78619 -13.7427 31.75
      vertex 4.25312 0.331963 -0.0005
      vertex 4.25312 -15.1538 31.75
    endloop
  endfacet
  facet normal -0.425779 0.813253 0.39665
    outer loop
      vertex 4.25312 0.331963 -0.0005
      vertex 2.45282 -0.610587 -0.0005
      vertex 4.25312 -15.1538 31.75
    endloop
  endfacet
  facet normal -0.425779 0.813253 0.39665
    outer loop
      vertex 4.25312 -15.1538 31.75
      vertex 2.45282 -0.610587 -0.0005
      vertex 2.45282 -16.0963 31.75
    endloop
  endfacet
  facet normal -0.187381 0.882874 0.430606
    outer loop
      vertex 2.45282 -0.610587 -0.0005
      vertex 0.4984 -1.02539 -0.0005
      vertex 2.45282 -16.0963 31.75
    endloop
  endfacet
  facet normal -0.187381 0.882874 0.430606
    outer loop
      vertex 2.45282 -16.0963 31.75
      vertex 0.4984 -1.02539 -0.0005
      vertex 0.4984 -16.5111 31.75
    endloop
  endfacet
  facet normal 0.0627905 0.89702 0.437506
    outer loop
      vertex 0.4984 -1.02539 -0.0005
      vertex -1.48734 -0.886394 -0.0005
      vertex 0.4984 -16.5111 31.75
    endloop
  endfacet
  facet normal 0.0627905 0.89702 0.437506
    outer loop
      vertex 0.4984 -16.5111 31.75
      vertex -1.48734 -0.886394 -0.0005
      vertex -1.48734 -16.3721 31.75
    endloop
  endfacet
  facet normal 0.309017 0.854804 0.416916
    outer loop
      vertex -1.48734 -0.886394 -0.0005
      vertex -3.37962 -0.202322 -0.0005
      vertex -1.48734 -16.3721 31.75
    endloop
  endfacet
  facet normal 0.309017 0.854804 0.416916
    outer loop
      vertex -1.48734 -16.3721 31.75
      vertex -3.37962 -0.202322 -0.0005
      vertex -3.37962 -15.6881 31.75
    endloop
  endfacet
  facet normal 0.535827 0.758877 0.370129
    outer loop
      vertex -3.37962 -0.202322 -0.0005
      vertex -5.05955 0.983841 -0.0005
      vertex -3.37962 -15.6881 31.75
    endloop
  endfacet
  facet normal 0.535827 0.758877 0.370129
    outer loop
      vertex -3.37962 -15.6881 31.75
      vertex -5.05955 0.983841 -0.0005
      vertex -5.05955 -14.5019 31.75
    endloop
  endfacet
  facet normal 0.728969 0.615267 0.300086
    outer loop
      vertex -5.05955 -14.5019 31.75
      vertex -5.05955 0.983841 -0.0005
      vertex -6.42157 2.59756 -0.0005
    endloop
  endfacet
  facet normal 0.728969 0.615267 0.300086
    outer loop
      vertex -6.42157 -12.8882 31.75
      vertex -5.05955 -14.5019 31.75
      vertex -6.42157 2.59756 -0.0005
    endloop
  endfacet
  facet normal 0.876306 0.432998 0.211187
    outer loop
      vertex -6.42157 -12.8882 31.75
      vertex -6.42157 2.59756 -0.0005
      vertex -7.3801 4.53745 -0.0005
    endloop
  endfacet
  facet normal 0.876306 0.432998 0.211187
    outer loop
      vertex -7.3801 -10.9483 31.75
      vertex -6.42157 -12.8882 31.75
      vertex -7.3801 4.53745 -0.0005
    endloop
  endfacet
  facet normal 0.968583 0.223521 0.109018
    outer loop
      vertex -7.3801 -10.9483 31.75
      vertex -7.3801 4.53745 -0.0005
      vertex -7.87491 6.6816 -0.0005
    endloop
  endfacet
  facet normal 0.968583 0.223521 0.109018
    outer loop
      vertex -7.87491 -8.80415 31.75
      vertex -7.3801 -10.9483 31.75
      vertex -7.87491 6.6816 -0.0005
    endloop
  endfacet
  facet normal 0 0 1
    outer loop
      vertex -26.3978 5.61102 6.3505
      vertex -26.9875 0 6.3505
      vertex -26.3978 -5.61102 6.3505
    endloop
  endfacet
  facet normal 0 0 1
    outer loop
      vertex -21.8333 -15.8629 6.3505
      vertex -26.3978 5.61102 6.3505
      vertex -24.6543 -10.9768 6.3505
    endloop
  endfacet
  facet normal 0 0 1
    outer loop
      vertex -24.6543 -10.9768 6.3505
      vertex -26.3978 5.61102 6.3505
      vertex -26.3978 -5.61102 6.3505
    endloop
  endfacet
  facet normal 0 0 1
    outer loop
      vertex -18.0582 -20.0556 6.3505
      vertex -26.3978 5.61102 6.3505
      vertex -21.8333 -15.8629 6.3505
    endloop
  endfacet
  facet normal 0 0 1
    outer loop
      vertex -13.4937 -23.3719 6.3505
      vertex -26.3978 5.61102 6.3505
      vertex -18.0582 -20.0556 6.3505
    endloop
  endfacet
  facet normal -0 -0 1
    outer loop
      vertex -18.8533 -8.39403 6.3505
      vertex -26.3978 5.61102 6.3505
      vertex -13.4937 -23.3719 6.3505
    endloop
  endfacet
  facet normal 0 -0 1
    outer loop
      vertex 16.6961 -12.1304 6.3505
      vertex 13.8092 -15.3367 6.3505
      vertex 21.8333 -15.8629 6.3505
    endloop
  endfacet
  facet normal 0 0 1
    outer loop
      vertex -20.1865 4.29078 6.3505
      vertex -18.8533 8.39403 6.3505
      vertex -26.3978 5.61102 6.3505
    endloop
  endfacet
  facet normal 0 -0 1
    outer loop
      vertex 6.37734 -19.6274 6.3505
      vertex 2.15721 -20.5244 6.3505
      vertex 8.3396 -25.6666 6.3505
    endloop
  endfacet
  facet normal 0 0 1
    outer loop
      vertex 18.8533 8.39403 6.3505
      vertex 20.1865 4.29078 6.3505
      vertex 26.3978 5.61102 6.3505
    endloop
  endfacet
  facet normal 0 0 1
    outer loop
      vertex 10.3187 17.8726 6.3505
      vertex 13.8092 15.3367 6.3505
      vertex 18.0582 20.0556 6.3505
    endloop
  endfacet
  facet normal 0 0 1
    outer loop
      vertex -10.3187 17.8726 6.3505
      vertex -6.37734 19.6274 6.3505
      vertex 2.82096 26.8397 6.3505
    endloop
  endfacet
  facet normal 0 0 1
    outer loop
      vertex -2.15721 20.5244 6.3505
      vertex 2.15721 20.5244 6.3505
      vertex 8.3396 25.6666 6.3505
    endloop
  endfacet
  facet normal 0 -0 1
    outer loop
      vertex -8.3396 25.6666 6.3505
      vertex -26.3978 5.61102 6.3505
      vertex -2.82096 26.8397 6.3505
    endloop
  endfacet
  facet normal 0 -0 1
    outer loop
      vertex -13.4937 23.3719 6.3505
      vertex -26.3978 5.61102 6.3505
      vertex -8.3396 25.6666 6.3505
    endloop
  endfacet
  facet normal 0 -0 1
    outer loop
      vertex -18.0582 20.0556 6.3505
      vertex -26.3978 5.61102 6.3505
      vertex -13.4937 23.3719 6.3505
    endloop
  endfacet
  facet normal 0 -0 1
    outer loop
      vertex -21.8333 15.8629 6.3505
      vertex -26.3978 5.61102 6.3505
      vertex -18.0582 20.0556 6.3505
    endloop
  endfacet
  facet normal 0 -0 1
    outer loop
      vertex -24.6543 10.9768 6.3505
      vertex -26.3978 5.61102 6.3505
      vertex -21.8333 15.8629 6.3505
    endloop
  endfacet
  facet normal 0 -0 1
    outer loop
      vertex 18.8533 -8.39403 6.3505
      vertex 16.6961 -12.1304 6.3505
      vertex 24.6543 -10.9768 6.3505
    endloop
  endfacet
  facet normal 0 0 1
    outer loop
      vertex 13.8092 15.3367 6.3505
      vertex 16.6961 12.1304 6.3505
      vertex 21.8333 15.8629 6.3505
    endloop
  endfacet
  facet normal 0 0 1
    outer loop
      vertex 2.15721 20.5244 6.3505
      vertex 6.37734 19.6274 6.3505
      vertex 13.4937 23.3719 6.3505
    endloop
  endfacet
  facet normal 0 0 1
    outer loop
      vertex -2.82096 26.8397 6.3505
      vertex -26.3978 5.61102 6.3505
      vertex -13.8092 15.3367 6.3505
    endloop
  endfacet
  facet normal 0 -0 1
    outer loop
      vertex -2.82096 26.8397 6.3505
      vertex -10.3187 17.8726 6.3505
      vertex 2.82096 26.8397 6.3505
    endloop
  endfacet
  facet normal 0 0 1
    outer loop
      vertex -2.82096 26.8397 6.3505
      vertex -13.8092 15.3367 6.3505
      vertex -10.3187 17.8726 6.3505
    endloop
  endfacet
  facet normal 0 -0 1
    outer loop
      vertex 2.82096 26.8397 6.3505
      vertex -6.37734 19.6274 6.3505
      vertex 8.3396 25.6666 6.3505
    endloop
  endfacet
  facet normal 0 0 1
    outer loop
      vertex -6.37734 19.6274 6.3505
      vertex -2.15721 20.5244 6.3505
      vertex 8.3396 25.6666 6.3505
    endloop
  endfacet
  facet normal 0 -0 1
    outer loop
      vertex 8.3396 25.6666 6.3505
      vertex 2.15721 20.5244 6.3505
      vertex 13.4937 23.3719 6.3505
    endloop
  endfacet
  facet normal -0 0 1
    outer loop
      vertex -16.6961 12.1304 6.3505
      vertex -13.8092 15.3367 6.3505
      vertex -26.3978 5.61102 6.3505
    endloop
  endfacet
  facet normal 0 -0 1
    outer loop
      vertex 13.4937 23.3719 6.3505
      vertex 6.37734 19.6274 6.3505
      vertex 18.0582 20.0556 6.3505
    endloop
  endfacet
  facet normal 0 0 1
    outer loop
      vertex 6.37734 19.6274 6.3505
      vertex 10.3187 17.8726 6.3505
      vertex 18.0582 20.0556 6.3505
    endloop
  endfacet
  facet normal 0 -0 1
    outer loop
      vertex 18.0582 20.0556 6.3505
      vertex 13.8092 15.3367 6.3505
      vertex 21.8333 15.8629 6.3505
    endloop
  endfacet
  facet normal 0 0 1
    outer loop
      vertex 20.1865 4.29078 6.3505
      vertex 20.6375 0 6.3505
      vertex 26.9875 0 6.3505
    endloop
  endfacet
  facet normal 0 -0 1
    outer loop
      vertex 21.8333 15.8629 6.3505
      vertex 16.6961 12.1304 6.3505
      vertex 24.6543 10.9768 6.3505
    endloop
  endfacet
  facet normal -0 0 1
    outer loop
      vertex -18.8533 8.39403 6.3505
      vertex -16.6961 12.1304 6.3505
      vertex -26.3978 5.61102 6.3505
    endloop
  endfacet
  facet normal 0 -0 1
    outer loop
      vertex 24.6543 10.9768 6.3505
      vertex 18.8533 8.39403 6.3505
      vertex 26.3978 5.61102 6.3505
    endloop
  endfacet
  facet normal 0 -0 1
    outer loop
      vertex 26.3978 5.61102 6.3505
      vertex 20.1865 4.29078 6.3505
      vertex 26.9875 0 6.3505
    endloop
  endfacet
  facet normal 0 0 1
    outer loop
      vertex 26.9875 0 6.3505
      vertex 20.6375 0 6.3505
      vertex 26.3978 -5.61102 6.3505
    endloop
  endfacet
  facet normal -0 0 1
    outer loop
      vertex 26.3978 -5.61102 6.3505
      vertex 20.1865 -4.29078 6.3505
      vertex 24.6543 -10.9768 6.3505
    endloop
  endfacet
  facet normal 0 0 1
    outer loop
      vertex 16.6961 12.1304 6.3505
      vertex 18.8533 8.39403 6.3505
      vertex 24.6543 10.9768 6.3505
    endloop
  endfacet
  facet normal 0 -0 1
    outer loop
      vertex 20.1865 -4.29078 6.3505
      vertex 18.8533 -8.39403 6.3505
      vertex 24.6543 -10.9768 6.3505
    endloop
  endfacet
  facet normal 0 0 1
    outer loop
      vertex 24.6543 -10.9768 6.3505
      vertex 16.6961 -12.1304 6.3505
      vertex 21.8333 -15.8629 6.3505
    endloop
  endfacet
  facet normal -0 0 1
    outer loop
      vertex 21.8333 -15.8629 6.3505
      vertex 13.8092 -15.3367 6.3505
      vertex 18.0582 -20.0556 6.3505
    endloop
  endfacet
  facet normal -0 0 1
    outer loop
      vertex 18.0582 -20.0556 6.3505
      vertex 10.3187 -17.8726 6.3505
      vertex 13.4937 -23.3719 6.3505
    endloop
  endfacet
  facet normal 0 -0 1
    outer loop
      vertex 20.6375 0 6.3505
      vertex 20.1865 -4.29078 6.3505
      vertex 26.3978 -5.61102 6.3505
    endloop
  endfacet
  facet normal -0 0 1
    outer loop
      vertex 13.4937 -23.3719 6.3505
      vertex 6.37734 -19.6274 6.3505
      vertex 8.3396 -25.6666 6.3505
    endloop
  endfacet
  facet normal -0 0 1
    outer loop
      vertex 8.3396 -25.6666 6.3505
      vertex 2.15721 -20.5244 6.3505
      vertex 2.82096 -26.8397 6.3505
    endloop
  endfacet
  facet normal 0 -0 1
    outer loop
      vertex 2.15721 -20.5244 6.3505
      vertex -2.15721 -20.5244 6.3505
      vertex 2.82096 -26.8397 6.3505
    endloop
  endfacet
  facet normal -0 0 1
    outer loop
      vertex 2.82096 -26.8397 6.3505
      vertex -6.37734 -19.6274 6.3505
      vertex -2.82096 -26.8397 6.3505
    endloop
  endfacet
  facet normal 0 0 1
    outer loop
      vertex -2.82096 -26.8397 6.3505
      vertex -10.3187 -17.8726 6.3505
      vertex -8.3396 -25.6666 6.3505
    endloop
  endfacet
  facet normal -0 -0 1
    outer loop
      vertex -10.3187 -17.8726 6.3505
      vertex -13.8092 -15.3367 6.3505
      vertex -8.3396 -25.6666 6.3505
    endloop
  endfacet
  facet normal 0 0 1
    outer loop
      vertex -8.3396 -25.6666 6.3505
      vertex -16.6961 -12.1304 6.3505
      vertex -13.4937 -23.3719 6.3505
    endloop
  endfacet
  facet normal -0 -0 1
    outer loop
      vertex -16.6961 -12.1304 6.3505
      vertex -18.8533 -8.39403 6.3505
      vertex -13.4937 -23.3719 6.3505
    endloop
  endfacet
  facet normal -0 -0 1
    outer loop
      vertex -13.8092 -15.3367 6.3505
      vertex -16.6961 -12.1304 6.3505
      vertex -8.3396 -25.6666 6.3505
    endloop
  endfacet
  facet normal 0 0 1
    outer loop
      vertex -18.8533 -8.39403 6.3505
      vertex -20.1865 -4.29078 6.3505
      vertex -26.3978 5.61102 6.3505
    endloop
  endfacet
  facet normal 0 0 1
    outer loop
      vertex -20.1865 -4.29078 6.3505
      vertex -20.6375 0 6.3505
      vertex -26.3978 5.61102 6.3505
    endloop
  endfacet
  facet normal 0 -0 1
    outer loop
      vertex 13.8092 -15.3367 6.3505
      vertex 10.3187 -17.8726 6.3505
      vertex 18.0582 -20.0556 6.3505
    endloop
  endfacet
  facet normal 0 -0 1
    outer loop
      vertex 10.3187 -17.8726 6.3505
      vertex 6.37734 -19.6274 6.3505
      vertex 13.4937 -23.3719 6.3505
    endloop
  endfacet
  facet normal -0 -0 1
    outer loop
      vertex -6.37734 -19.6274 6.3505
      vertex -10.3187 -17.8726 6.3505
      vertex -2.82096 -26.8397 6.3505
    endloop
  endfacet
  facet normal -0 -0 1
    outer loop
      vertex -2.15721 -20.5244 6.3505
      vertex -6.37734 -19.6274 6.3505
      vertex 2.82096 -26.8397 6.3505
    endloop
  endfacet
  facet normal 0 0 1
    outer loop
      vertex -20.6375 0 6.3505
      vertex -20.1865 4.29078 6.3505
      vertex -26.3978 5.61102 6.3505
    endloop
  endfacet
  facet normal 0 0 1
    outer loop
      vertex -20.1865 4.29078 31.75
      vertex -20.6375 0 31.75
      vertex -20.1865 -4.29078 31.75
    endloop
  endfacet
  facet normal 0 0 1
    outer loop
      vertex -16.6961 -12.1304 31.75
      vertex -20.1865 4.29078 31.75
      vertex -18.8533 -8.39403 31.75
    endloop
  endfacet
  facet normal 0 0 1
    outer loop
      vertex -18.8533 -8.39403 31.75
      vertex -20.1865 4.29078 31.75
      vertex -20.1865 -4.29078 31.75
    endloop
  endfacet
  facet normal 0 0 1
    outer loop
      vertex -13.8092 -15.3367 31.75
      vertex -20.1865 4.29078 31.75
      vertex -16.6961 -12.1304 31.75
    endloop
  endfacet
  facet normal 0 0 1
    outer loop
      vertex -10.3187 -17.8726 31.75
      vertex -20.1865 4.29078 31.75
      vertex -13.8092 -15.3367 31.75
    endloop
  endfacet
  facet normal 0 0 1
    outer loop
      vertex -6.37734 -19.6274 31.75
      vertex -20.1865 4.29078 31.75
      vertex -10.3187 -17.8726 31.75
    endloop
  endfacet
  facet normal 0 0 1
    outer loop
      vertex -2.15721 -20.5244 31.75
      vertex -20.1865 4.29078 31.75
      vertex -6.37734 -19.6274 31.75
    endloop
  endfacet
  facet normal -0 -0 1
    outer loop
      vertex -6.42157 -12.8882 31.75
      vertex -20.1865 4.29078 31.75
      vertex -2.15721 -20.5244 31.75
    endloop
  endfacet
  facet normal 0 -0 1
    outer loop
      vertex 4.25312 -15.1538 31.75
      vertex 2.45282 -16.0963 31.75
      vertex 6.37734 -19.6274 31.75
    endloop
  endfacet
  facet normal 0 0 1
    outer loop
      vertex -5.05955 -0.892679 31.75
      vertex -3.37962 0.293483 31.75
      vertex -20.1865 4.29078 31.75
    endloop
  endfacet
  facet normal 0 -0 1
    outer loop
      vertex 20.1865 4.29078 31.75
      vertex -20.1865 4.29078 31.75
      vertex 20.6375 0 31.75
    endloop
  endfacet
  facet normal 0 -0 1
    outer loop
      vertex 18.8533 8.39403 31.75
      vertex -20.1865 4.29078 31.75
      vertex 20.1865 4.29078 31.75
    endloop
  endfacet
  facet normal 0 -0 1
    outer loop
      vertex 16.6961 12.1304 31.75
      vertex -20.1865 4.29078 31.75
      vertex 18.8533 8.39403 31.75
    endloop
  endfacet
  facet normal 0 -0 1
    outer loop
      vertex 13.8092 15.3367 31.75
      vertex -20.1865 4.29078 31.75
      vertex 16.6961 12.1304 31.75
    endloop
  endfacet
  facet normal 0 -0 1
    outer loop
      vertex 10.3187 17.8726 31.75
      vertex -20.1865 4.29078 31.75
      vertex 13.8092 15.3367 31.75
    endloop
  endfacet
  facet normal 0 -0 1
    outer loop
      vertex 6.37734 19.6274 31.75
      vertex -20.1865 4.29078 31.75
      vertex 10.3187 17.8726 31.75
    endloop
  endfacet
  facet normal 0 -0 1
    outer loop
      vertex 2.15721 20.5244 31.75
      vertex -20.1865 4.29078 31.75
      vertex 6.37734 19.6274 31.75
    endloop
  endfacet
  facet normal 0 -0 1
    outer loop
      vertex -2.15721 20.5244 31.75
      vertex -20.1865 4.29078 31.75
      vertex 2.15721 20.5244 31.75
    endloop
  endfacet
  facet normal 0 -0 1
    outer loop
      vertex -6.37734 19.6274 31.75
      vertex -20.1865 4.29078 31.75
      vertex -2.15721 20.5244 31.75
    endloop
  endfacet
  facet normal 0 -0 1
    outer loop
      vertex -10.3187 17.8726 31.75
      vertex -20.1865 4.29078 31.75
      vertex -6.37734 19.6274 31.75
    endloop
  endfacet
  facet normal 0 -0 1
    outer loop
      vertex -13.8092 15.3367 31.75
      vertex -20.1865 4.29078 31.75
      vertex -10.3187 17.8726 31.75
    endloop
  endfacet
  facet normal 0 -0 1
    outer loop
      vertex -16.6961 12.1304 31.75
      vertex -20.1865 4.29078 31.75
      vertex -13.8092 15.3367 31.75
    endloop
  endfacet
  facet normal 0 -0 1
    outer loop
      vertex -18.8533 8.39403 31.75
      vertex -20.1865 4.29078 31.75
      vertex -16.6961 12.1304 31.75
    endloop
  endfacet
  facet normal 0 0 1
    outer loop
      vertex -6.42157 -12.8882 31.75
      vertex -7.3801 -10.9483 31.75
      vertex -20.1865 4.29078 31.75
    endloop
  endfacet
  facet normal 0 0 1
    outer loop
      vertex -6.42157 -2.5064 31.75
      vertex -5.05955 -0.892679 31.75
      vertex -20.1865 4.29078 31.75
    endloop
  endfacet
  facet normal 0 -0 1
    outer loop
      vertex 2.45282 -16.0963 31.75
      vertex 0.4984 -16.5111 31.75
      vertex 6.37734 -19.6274 31.75
    endloop
  endfacet
  facet normal 0 0 1
    outer loop
      vertex -7.3801 -4.44629 31.75
      vertex -6.42157 -2.5064 31.75
      vertex -20.1865 4.29078 31.75
    endloop
  endfacet
  facet normal 0 -0 1
    outer loop
      vertex 5.78619 -13.7427 31.75
      vertex 4.25312 -15.1538 31.75
      vertex 10.3187 -17.8726 31.75
    endloop
  endfacet
  facet normal 0 0 1
    outer loop
      vertex 4.25312 -0.240801 31.75
      vertex 5.78619 -1.65187 31.75
      vertex 20.1865 -4.29078 31.75
    endloop
  endfacet
  facet normal 0 -0 1
    outer loop
      vertex 7.9375 -7.6973 31.75
      vertex 7.68813 -9.89355 31.75
      vertex 16.6961 -12.1304 31.75
    endloop
  endfacet
  facet normal 0 0 1
    outer loop
      vertex -3.37962 0.293483 31.75
      vertex -1.48734 0.977556 31.75
      vertex -20.1865 4.29078 31.75
    endloop
  endfacet
  facet normal 0 -0 1
    outer loop
      vertex 7.68813 -9.89355 31.75
      vertex 6.95568 -11.9518 31.75
      vertex 13.8092 -15.3367 31.75
    endloop
  endfacet
  facet normal 0 0 1
    outer loop
      vertex 0.4984 1.11656 31.75
      vertex 2.45282 0.701748 31.75
      vertex 20.6375 0 31.75
    endloop
  endfacet
  facet normal 0 0 1
    outer loop
      vertex 6.95568 -3.4428 31.75
      vertex 7.68813 -5.50105 31.75
      vertex 18.8533 -8.39403 31.75
    endloop
  endfacet
  facet normal -0 0 1
    outer loop
      vertex 0.4984 1.11656 31.75
      vertex -20.1865 4.29078 31.75
      vertex -1.48734 0.977556 31.75
    endloop
  endfacet
  facet normal 0 0 1
    outer loop
      vertex 20.6375 0 31.75
      vertex -20.1865 4.29078 31.75
      vertex 0.4984 1.11656 31.75
    endloop
  endfacet
  facet normal -0 0 1
    outer loop
      vertex 20.6375 0 31.75
      vertex 2.45282 0.701748 31.75
      vertex 20.1865 -4.29078 31.75
    endloop
  endfacet
  facet normal 0 0 1
    outer loop
      vertex 2.45282 0.701748 31.75
      vertex 4.25312 -0.240801 31.75
      vertex 20.1865 -4.29078 31.75
    endloop
  endfacet
  facet normal -0 0 1
    outer loop
      vertex 20.1865 -4.29078 31.75
      vertex 5.78619 -1.65187 31.75
      vertex 18.8533 -8.39403 31.75
    endloop
  endfacet
  facet normal 0 0 1
    outer loop
      vertex 5.78619 -1.65187 31.75
      vertex 6.95568 -3.4428 31.75
      vertex 18.8533 -8.39403 31.75
    endloop
  endfacet
  facet normal -0 0 1
    outer loop
      vertex 18.8533 -8.39403 31.75
      vertex 7.68813 -5.50105 31.75
      vertex 16.6961 -12.1304 31.75
    endloop
  endfacet
  facet normal 0 0 1
    outer loop
      vertex 7.68813 -5.50105 31.75
      vertex 7.9375 -7.6973 31.75
      vertex 16.6961 -12.1304 31.75
    endloop
  endfacet
  facet normal -0 0 1
    outer loop
      vertex 16.6961 -12.1304 31.75
      vertex 7.68813 -9.89355 31.75
      vertex 13.8092 -15.3367 31.75
    endloop
  endfacet
  facet normal -0 0 1
    outer loop
      vertex 13.8092 -15.3367 31.75
      vertex 6.95568 -11.9518 31.75
      vertex 10.3187 -17.8726 31.75
    endloop
  endfacet
  facet normal 0 -0 1
    outer loop
      vertex 6.95568 -11.9518 31.75
      vertex 5.78619 -13.7427 31.75
      vertex 10.3187 -17.8726 31.75
    endloop
  endfacet
  facet normal -0 0 1
    outer loop
      vertex 10.3187 -17.8726 31.75
      vertex 4.25312 -15.1538 31.75
      vertex 6.37734 -19.6274 31.75
    endloop
  endfacet
  facet normal -0 -0 1
    outer loop
      vertex 0.4984 -16.5111 31.75
      vertex -1.48734 -16.3721 31.75
      vertex 2.15721 -20.5244 31.75
    endloop
  endfacet
  facet normal 0 0 1
    outer loop
      vertex -7.87491 -6.59044 31.75
      vertex -7.3801 -4.44629 31.75
      vertex -20.1865 4.29078 31.75
    endloop
  endfacet
  facet normal -0 0 1
    outer loop
      vertex 6.37734 -19.6274 31.75
      vertex 0.4984 -16.5111 31.75
      vertex 2.15721 -20.5244 31.75
    endloop
  endfacet
  facet normal -0 0 1
    outer loop
      vertex 2.15721 -20.5244 31.75
      vertex -3.37962 -15.6881 31.75
      vertex -2.15721 -20.5244 31.75
    endloop
  endfacet
  facet normal 0 0 1
    outer loop
      vertex -7.87491 -8.80415 31.75
      vertex -7.87491 -6.59044 31.75
      vertex -20.1865 4.29078 31.75
    endloop
  endfacet
  facet normal -0 -0 1
    outer loop
      vertex -3.37962 -15.6881 31.75
      vertex -5.05955 -14.5019 31.75
      vertex -2.15721 -20.5244 31.75
    endloop
  endfacet
  facet normal -0 -0 1
    outer loop
      vertex -5.05955 -14.5019 31.75
      vertex -6.42157 -12.8882 31.75
      vertex -2.15721 -20.5244 31.75
    endloop
  endfacet
  facet normal -0 -0 1
    outer loop
      vertex -1.48734 -16.3721 31.75
      vertex -3.37962 -15.6881 31.75
      vertex 2.15721 -20.5244 31.75
    endloop
  endfacet
  facet normal 0 0 1
    outer loop
      vertex -7.3801 -10.9483 31.75
      vertex -7.87491 -8.80415 31.75
      vertex -20.1865 4.29078 31.75
    endloop
  endfacet
  facet normal -0.994522 -0.104528 -0
    outer loop
      vertex -20.6375 0 6.3505
      vertex -20.1865 -4.29078 6.3505
      vertex -20.6375 0 31.75
    endloop
  endfacet
  facet normal -0.994522 -0.104528 0
    outer loop
      vertex -20.6375 0 31.75
      vertex -20.1865 -4.29078 6.3505
      vertex -20.1865 -4.29078 31.75
    endloop
  endfacet
  facet normal -0.951056 -0.309017 -0
    outer loop
      vertex -20.1865 -4.29078 6.3505
      vertex -18.8533 -8.39403 6.3505
      vertex -20.1865 -4.29078 31.75
    endloop
  endfacet
  facet normal -0.951056 -0.309017 0
    outer loop
      vertex -20.1865 -4.29078 31.75
      vertex -18.8533 -8.39403 6.3505
      vertex -18.8533 -8.39403 31.75
    endloop
  endfacet
  facet normal -0.866025 -0.5 -0
    outer loop
      vertex -18.8533 -8.39403 6.3505
      vertex -16.6961 -12.1304 6.3505
      vertex -18.8533 -8.39403 31.75
    endloop
  endfacet
  facet normal -0.866025 -0.5 0
    outer loop
      vertex -18.8533 -8.39403 31.75
      vertex -16.6961 -12.1304 6.3505
      vertex -16.6961 -12.1304 31.75
    endloop
  endfacet
  facet normal -0.743145 -0.669131 -0
    outer loop
      vertex -16.6961 -12.1304 6.3505
      vertex -13.8092 -15.3367 6.3505
      vertex -16.6961 -12.1304 31.75
    endloop
  endfacet
  facet normal -0.743145 -0.669131 0
    outer loop
      vertex -16.6961 -12.1304 31.75
      vertex -13.8092 -15.3367 6.3505
      vertex -13.8092 -15.3367 31.75
    endloop
  endfacet
  facet normal -0.587785 -0.809017 0
    outer loop
      vertex -13.8092 -15.3367 31.75
      vertex -13.8092 -15.3367 6.3505
      vertex -10.3187 -17.8726 6.3505
    endloop
  endfacet
  facet normal -0.587785 -0.809017 0
    outer loop
      vertex -10.3187 -17.8726 31.75
      vertex -13.8092 -15.3367 31.75
      vertex -10.3187 -17.8726 6.3505
    endloop
  endfacet
  facet normal -0.406737 -0.913545 0
    outer loop
      vertex -10.3187 -17.8726 31.75
      vertex -10.3187 -17.8726 6.3505
      vertex -6.37734 -19.6274 6.3505
    endloop
  endfacet
  facet normal -0.406737 -0.913545 0
    outer loop
      vertex -6.37734 -19.6274 31.75
      vertex -10.3187 -17.8726 31.75
      vertex -6.37734 -19.6274 6.3505
    endloop
  endfacet
  facet normal -0.207912 -0.978148 0
    outer loop
      vertex -6.37734 -19.6274 31.75
      vertex -6.37734 -19.6274 6.3505
      vertex -2.15721 -20.5244 6.3505
    endloop
  endfacet
  facet normal -0.207912 -0.978148 0
    outer loop
      vertex -2.15721 -20.5244 31.75
      vertex -6.37734 -19.6274 31.75
      vertex -2.15721 -20.5244 6.3505
    endloop
  endfacet
  facet normal 0 -1 0
    outer loop
      vertex -2.15721 -20.5244 31.75
      vertex -2.15721 -20.5244 6.3505
      vertex 2.15721 -20.5244 6.3505
    endloop
  endfacet
  facet normal 0 -1 0
    outer loop
      vertex 2.15721 -20.5244 31.75
      vertex -2.15721 -20.5244 31.75
      vertex 2.15721 -20.5244 6.3505
    endloop
  endfacet
  facet normal 0.207912 -0.978148 0
    outer loop
      vertex 2.15721 -20.5244 31.75
      vertex 2.15721 -20.5244 6.3505
      vertex 6.37734 -19.6274 6.3505
    endloop
  endfacet
  facet normal 0.207912 -0.978148 0
    outer loop
      vertex 6.37734 -19.6274 31.75
      vertex 2.15721 -20.5244 31.75
      vertex 6.37734 -19.6274 6.3505
    endloop
  endfacet
  facet normal 0.406737 -0.913545 0
    outer loop
      vertex 6.37734 -19.6274 31.75
      vertex 6.37734 -19.6274 6.3505
      vertex 10.3187 -17.8726 6.3505
    endloop
  endfacet
  facet normal 0.406737 -0.913545 0
    outer loop
      vertex 10.3187 -17.8726 31.75
      vertex 6.37734 -19.6274 31.75
      vertex 10.3187 -17.8726 6.3505
    endloop
  endfacet
  facet normal 0.587785 -0.809017 0
    outer loop
      vertex 10.3187 -17.8726 31.75
      vertex 10.3187 -17.8726 6.3505
      vertex 13.8092 -15.3367 6.3505
    endloop
  endfacet
  facet normal 0.587785 -0.809017 0
    outer loop
      vertex 13.8092 -15.3367 31.75
      vertex 10.3187 -17.8726 31.75
      vertex 13.8092 -15.3367 6.3505
    endloop
  endfacet
  facet normal 0.743145 -0.669131 0
    outer loop
      vertex 13.8092 -15.3367 31.75
      vertex 13.8092 -15.3367 6.3505
      vertex 16.6961 -12.1304 6.3505
    endloop
  endfacet
  facet normal 0.743145 -0.669131 0
    outer loop
      vertex 16.6961 -12.1304 31.75
      vertex 13.8092 -15.3367 31.75
      vertex 16.6961 -12.1304 6.3505
    endloop
  endfacet
  facet normal 0.866025 -0.5 0
    outer loop
      vertex 16.6961 -12.1304 31.75
      vertex 16.6961 -12.1304 6.3505
      vertex 18.8533 -8.39403 6.3505
    endloop
  endfacet
  facet normal 0.866025 -0.5 0
    outer loop
      vertex 18.8533 -8.39403 31.75
      vertex 16.6961 -12.1304 31.75
      vertex 18.8533 -8.39403 6.3505
    endloop
  endfacet
  facet normal 0.951056 -0.309017 0
    outer loop
      vertex 18.8533 -8.39403 31.75
      vertex 18.8533 -8.39403 6.3505
      vertex 20.1865 -4.29078 6.3505
    endloop
  endfacet
  facet normal 0.951056 -0.309017 0
    outer loop
      vertex 20.1865 -4.29078 31.75
      vertex 18.8533 -8.39403 31.75
      vertex 20.1865 -4.29078 6.3505
    endloop
  endfacet
  facet normal 0.994522 -0.104528 0
    outer loop
      vertex 20.1865 -4.29078 31.75
      vertex 20.1865 -4.29078 6.3505
      vertex 20.6375 0 6.3505
    endloop
  endfacet
  facet normal 0.994522 -0.104528 0
    outer loop
      vertex 20.6375 0 31.75
      vertex 20.1865 -4.29078 31.75
      vertex 20.6375 0 6.3505
    endloop
  endfacet
  facet normal 0.994522 0.104528 0
    outer loop
      vertex 20.6375 0 6.3505
      vertex 20.1865 4.29078 6.3505
      vertex 20.1865 4.29078 31.75
    endloop
  endfacet
  facet normal 0.994522 0.104528 -0
    outer loop
      vertex 20.6375 0 31.75
      vertex 20.6375 0 6.3505
      vertex 20.1865 4.29078 31.75
    endloop
  endfacet
  facet normal 0.951056 0.309017 0
    outer loop
      vertex 20.1865 4.29078 6.3505
      vertex 18.8533 8.39403 6.3505
      vertex 18.8533 8.39403 31.75
    endloop
  endfacet
  facet normal 0.951056 0.309017 -0
    outer loop
      vertex 20.1865 4.29078 31.75
      vertex 20.1865 4.29078 6.3505
      vertex 18.8533 8.39403 31.75
    endloop
  endfacet
  facet normal 0.866025 0.5 0
    outer loop
      vertex 18.8533 8.39403 6.3505
      vertex 16.6961 12.1304 6.3505
      vertex 16.6961 12.1304 31.75
    endloop
  endfacet
  facet normal 0.866025 0.5 -0
    outer loop
      vertex 18.8533 8.39403 31.75
      vertex 18.8533 8.39403 6.3505
      vertex 16.6961 12.1304 31.75
    endloop
  endfacet
  facet normal 0.743145 0.669131 0
    outer loop
      vertex 16.6961 12.1304 6.3505
      vertex 13.8092 15.3367 6.3505
      vertex 13.8092 15.3367 31.75
    endloop
  endfacet
  facet normal 0.743145 0.669131 -0
    outer loop
      vertex 16.6961 12.1304 31.75
      vertex 16.6961 12.1304 6.3505
      vertex 13.8092 15.3367 31.75
    endloop
  endfacet
  facet normal 0.587785 0.809017 0
    outer loop
      vertex 10.3187 17.8726 6.3505
      vertex 10.3187 17.8726 31.75
      vertex 13.8092 15.3367 6.3505
    endloop
  endfacet
  facet normal 0.587785 0.809017 0
    outer loop
      vertex 13.8092 15.3367 6.3505
      vertex 10.3187 17.8726 31.75
      vertex 13.8092 15.3367 31.75
    endloop
  endfacet
  facet normal 0.406737 0.913545 0
    outer loop
      vertex 6.37734 19.6274 6.3505
      vertex 6.37734 19.6274 31.75
      vertex 10.3187 17.8726 6.3505
    endloop
  endfacet
  facet normal 0.406737 0.913545 0
    outer loop
      vertex 10.3187 17.8726 6.3505
      vertex 6.37734 19.6274 31.75
      vertex 10.3187 17.8726 31.75
    endloop
  endfacet
  facet normal 0.207912 0.978148 0
    outer loop
      vertex 2.15721 20.5244 6.3505
      vertex 2.15721 20.5244 31.75
      vertex 6.37734 19.6274 6.3505
    endloop
  endfacet
  facet normal 0.207912 0.978148 0
    outer loop
      vertex 6.37734 19.6274 6.3505
      vertex 2.15721 20.5244 31.75
      vertex 6.37734 19.6274 31.75
    endloop
  endfacet
  facet normal 0 1 0
    outer loop
      vertex -2.15721 20.5244 6.3505
      vertex -2.15721 20.5244 31.75
      vertex 2.15721 20.5244 6.3505
    endloop
  endfacet
  facet normal 0 1 0
    outer loop
      vertex 2.15721 20.5244 6.3505
      vertex -2.15721 20.5244 31.75
      vertex 2.15721 20.5244 31.75
    endloop
  endfacet
  facet normal -0.207912 0.978148 0
    outer loop
      vertex -6.37734 19.6274 6.3505
      vertex -6.37734 19.6274 31.75
      vertex -2.15721 20.5244 6.3505
    endloop
  endfacet
  facet normal -0.207912 0.978148 0
    outer loop
      vertex -2.15721 20.5244 6.3505
      vertex -6.37734 19.6274 31.75
      vertex -2.15721 20.5244 31.75
    endloop
  endfacet
  facet normal -0.406737 0.913545 0
    outer loop
      vertex -10.3187 17.8726 6.3505
      vertex -10.3187 17.8726 31.75
      vertex -6.37734 19.6274 6.3505
    endloop
  endfacet
  facet normal -0.406737 0.913545 0
    outer loop
      vertex -6.37734 19.6274 6.3505
      vertex -10.3187 17.8726 31.75
      vertex -6.37734 19.6274 31.75
    endloop
  endfacet
  facet normal -0.587785 0.809017 0
    outer loop
      vertex -13.8092 15.3367 6.3505
      vertex -13.8092 15.3367 31.75
      vertex -10.3187 17.8726 6.3505
    endloop
  endfacet
  facet normal -0.587785 0.809017 0
    outer loop
      vertex -10.3187 17.8726 6.3505
      vertex -13.8092 15.3367 31.75
      vertex -10.3187 17.8726 31.75
    endloop
  endfacet
  facet normal -0.743145 0.669131 0
    outer loop
      vertex -16.6961 12.1304 6.3505
      vertex -16.6961 12.1304 31.75
      vertex -13.8092 15.3367 6.3505
    endloop
  endfacet
  facet normal -0.743145 0.669131 0
    outer loop
      vertex -13.8092 15.3367 6.3505
      vertex -16.6961 12.1304 31.75
      vertex -13.8092 15.3367 31.75
    endloop
  endfacet
  facet normal -0.866025 0.5 0
    outer loop
      vertex -18.8533 8.39403 6.3505
      vertex -18.8533 8.39403 31.75
      vertex -16.6961 12.1304 6.3505
    endloop
  endfacet
  facet normal -0.866025 0.5 0
    outer loop
      vertex -16.6961 12.1304 6.3505
      vertex -18.8533 8.39403 31.75
      vertex -16.6961 12.1304 31.75
    endloop
  endfacet
  facet normal -0.951056 0.309017 0
    outer loop
      vertex -20.1865 4.29078 6.3505
      vertex -20.1865 4.29078 31.75
      vertex -18.8533 8.39403 6.3505
    endloop
  endfacet
  facet normal -0.951056 0.309017 0
    outer loop
      vertex -18.8533 8.39403 6.3505
      vertex -20.1865 4.29078 31.75
      vertex -18.8533 8.39403 31.75
    endloop
  endfacet
  facet normal -0.994522 0.104528 0
    outer loop
      vertex -20.6375 0 6.3505
      vertex -20.6375 0 31.75
      vertex -20.1865 4.29078 6.3505
    endloop
  endfacet
  facet normal -0.994522 0.104528 0
    outer loop
      vertex -20.1865 4.29078 6.3505
      vertex -20.6375 0 31.75
      vertex -20.1865 4.29078 31.75
    endloop
  endfacet
endsolid OpenSCAD_Model
